<?xml version="1.0" encoding="utf-8"?>
<!-- Generator: Adobe Illustrator 18.1.1, SVG Export Plug-In . SVG Version: 6.00 Build 0)  -->
<svg version="1.1" id="Laag_1" xmlns="http://www.w3.org/2000/svg" xmlns:xlink="http://www.w3.org/1999/xlink" x="0px" y="0px"
	 viewBox="0 0 340.2 164.4" enable-background="new 0 0 340.2 164.4" xml:space="preserve">
<g>
	<path fill="#004A99" d="M66.1,43.8c-12,4.1-21.7,11.3-27.7,19.5c4.9-4.4,11.1-8.2,18.2-10.6c20.9-7.2,42-0.9,47.2,14
		c5.2,15-7.6,32.9-28.5,40.1c-6.2,2.2-12.5,3.1-18.3,3c9.3,2,20.2,1.3,31.1-2.4c24.5-8.5,39.5-29.6,33.4-47.1
		C115.4,42.7,90.6,35.3,66.1,43.8"/>
	<path fill="#004A99" d="M101,72.4c-1-8.3-6.6-12.7-6.6-12.7c-6.2,19.1-32.9,27.4-59.5,18.7c-7.9-2.6-15-6.4-20.8-11
		c7.9,9.1,19.4,16.8,33.2,21.4c28,9.2,42.6,5.3,48.8-1.6C98,85.3,102,80.7,101,72.4"/>
</g>
<line fill="none" stroke="#004A99" stroke-width="1.1598" x1="135.1" y1="39.4" x2="135.1" y2="132.7"/>
<g>
	<path d="M152.9,74.9h7.8c11.2,0,13.7-10,13.7-15c0-8.1-4.4-15-14-15h-7.6V74.9z M147.9,39.8h13.3c12.7,0,18.2,10.7,18.2,20.2
		c0,10.4-6.9,20.2-18.2,20.2h-13.4V39.8z"/>
	<path d="M202.5,64.1c-0.2-4-2.5-6.6-6.2-6.6c-4,0-6.4,2.4-7.2,6.6H202.5z M207.3,77.5c-3.2,2.1-6.1,3.1-10.6,3.1
		c-8.3,0-12.9-6.8-12.9-14.1c0-8,5.1-13.5,12.4-13.5c7,0,11.5,4.8,11.5,14.6H189c0.8,5.3,3.9,8,8.9,8c3.2,0,6.2-1.2,9.3-3.2V77.5z"
		/>
	<path d="M235.8,80.6c0,7.5-3,13.1-11.1,13.1c-0.7,0-1.2-0.1-1.8-0.1l-1.1-5.4h1.5c6.2,0,6.7-3.1,6.7-9.4V39.8h5.8V80.6z"/>
	<path d="M246.7,66.6c0,5.6,3.5,9.3,8.6,9.3c5.6,0,9.1-3.6,9.1-9.3c0-5.1-3.8-8.9-9.1-8.9C250.3,57.7,246.7,61.5,246.7,66.6
		 M269.7,66.6c0,8.4-5.9,14.1-14.4,14.1c-8.2,0-14-5.9-14-14.1c0-7.6,6.1-13.5,14-13.5C263.6,53,269.7,58.7,269.7,66.6"/>
	<path d="M280.7,57h0.1c2-2.5,5-4,7.9-4c5,0,9.1,3.4,9.1,10.7v16.4h-5.3V63.7c0-3.9-2-6.5-5.2-6.5c-2.3,0-4.1,1.1-6.6,3.8v19.1h-5.3
		V53.5h5.3V57z"/>
	<path d="M313.8,58.1c-2.9,0-5.3,2.2-5.3,4.8c0,2.9,2.1,4.9,5.3,4.9c3,0,5.1-2.1,5.1-5C318.9,60.2,316.5,58.1,313.8,58.1
		 M312.4,81.4c-3.6,0-6,1.7-6,4c0,2.7,2.6,4.1,7.4,4.1c4.6,0,7.3-1.4,7.3-3.8C321.1,82.3,315.7,81.4,312.4,81.4 M326.3,57.6h-5.4
		c2.1,2.1,2.8,3.6,2.8,5.8c0,2.2-1.2,4.7-2.5,6c-3.5,3.8-10.8,1.9-10.8,5c0,1.5,2.8,2.4,8.1,3.4c5.7,1.1,7.7,4,7.7,7.4
		c0,5.3-4.7,8.5-12.5,8.5c-7.2,0-12.3-3.4-12.3-8c0-3.9,2.1-6.2,6.7-7.3c-1.8-1.1-2.7-2.2-2.7-3.4c0-1.7,1.7-3.2,4.2-3.8v-0.1
		c-1.9-0.8-3.4-2-4.4-3.4c-0.9-1.4-1.4-3-1.4-5c0-5.7,4.4-9.2,11.6-9.2h10.9V57.6z"/>
</g>
<path fill="#004A99" d="M151.2,109h3.1l-1.6-3.6L151.2,109z M157.6,113.2h-1.4l-1.3-2.9h-4.2l-1.2,2.9h-1.4l4.2-9.9h1L157.6,113.2z"
	/>
<g>
	<path fill="#004A99" d="M168.6,105.5c-1.2-0.7-2.3-1-3.4-1c-2.3,0-3.9,1.6-3.9,3.8c0,2.2,1.6,3.7,4,3.7c1.1,0,2.3-0.4,3.4-1.1v1.5
		c-1,0.5-2,0.9-3.6,0.9c-3.7,0-5.3-2.9-5.3-4.9c0-3,2.3-5.2,5.4-5.2c1,0,2,0.2,3.4,0.8V105.5z"/>
	<path fill="#004A99" d="M181,105.5c-1.2-0.7-2.3-1-3.4-1c-2.3,0-3.9,1.6-3.9,3.8c0,2.2,1.6,3.7,4,3.7c1.1,0,2.3-0.4,3.4-1.1v1.5
		c-1,0.5-2,0.9-3.6,0.9c-3.7,0-5.3-2.9-5.3-4.9c0-3,2.3-5.2,5.4-5.2c1,0,2,0.2,3.4,0.8V105.5z"/>
	<path fill="#004A99" d="M189.8,112c2.2,0,3.9-1.6,3.9-3.8c0-2.2-1.6-3.8-3.9-3.8c-2.2,0-3.8,1.6-3.8,3.8
		C186,110.4,187.6,112,189.8,112 M189.8,103.2c3.3,0,5.3,2.3,5.3,5.1c0,2.7-2,5.1-5.3,5.1c-3.2,0-5.3-2.4-5.3-5.1
		C184.5,105.5,186.6,103.2,189.8,103.2"/>
	<path fill="#004A99" d="M207.3,109.3c0,2.4-1.4,4-4.4,4c-2.1,0-4.1-1.2-4.1-3.9v-6.1h1.4v5.8c0,1.1,0.1,1.6,0.6,2
		c0.6,0.6,1.3,0.8,2.1,0.8c1.1,0,1.9-0.3,2.3-0.8c0.5-0.5,0.6-1.2,0.6-2.2v-5.7h1.4V109.3z"/>
</g>
<polygon fill="#004A99" points="220.4,113.2 219.2,113.2 212.6,105.6 212.6,113.2 211.3,113.2 211.3,103.3 212.4,103.3 219.1,110.9 
	219.1,103.3 220.4,103.3 "/>
<polygon fill="#004A99" points="232.1,104.6 228.7,104.6 228.7,113.2 227.3,113.2 227.3,104.6 223.9,104.6 223.9,103.3 232.1,103.3 
	"/>
<path fill="#004A99" d="M236.3,109h3.1l-1.6-3.6L236.3,109z M242.7,113.2h-1.4l-1.3-2.9h-4.2l-1.2,2.9h-1.5l4.3-9.9h1L242.7,113.2z"
	/>
<polygon fill="#004A99" points="255,113.2 253.8,113.2 247.2,105.6 247.2,113.2 245.9,113.2 245.9,103.3 247,103.3 253.7,110.9 
	253.7,103.3 255,103.3 "/>
<polygon fill="#004A99" points="266.7,104.6 263.3,104.6 263.3,113.2 261.9,113.2 261.9,104.6 258.5,104.6 258.5,103.3 266.7,103.3 
	"/>
<g>
	<path fill="#004A99" d="M274.9,105.5c-0.8-0.8-1.7-1-2.3-1c-0.9,0-1.6,0.5-1.6,1.2c0,1.9,4.3,1.9,4.3,5c0,1.6-1.2,2.7-2.8,2.7
		c-1.1,0-1.9-0.3-2.8-0.9v-1.8c0.7,0.9,1.6,1.4,2.6,1.4c1.1,0,1.6-0.7,1.6-1.2c0-2-4.3-2.3-4.3-5c0-1.6,1.2-2.6,3-2.6
		c0.8,0,1.5,0.2,2.2,0.7V105.5z"/>
	<path fill="#004A99" d="M150.4,131h1.8c1.7,0,2.1-0.8,2.1-1.6c0-0.9-0.7-1.5-2.2-1.5h-1.7V131z M150.4,126.7h0.9
		c1.4,0,2.1-0.5,2.1-1.6c0-0.7-0.4-1.4-1.7-1.4h-1.3V126.7z M149,122.4h2.9c2.1,0,3,1.3,3,2.5c0,1-0.5,1.7-1.5,2.1v0
		c1.5,0.3,2.4,1.2,2.4,2.6c0,1.2-0.9,2.6-3.4,2.6H149V122.4z"/>
</g>
<polygon fill="#004A99" points="164.9,123.7 160.7,123.7 160.7,126.7 164.7,126.7 164.7,128 160.7,128 160.7,131 165,131 165,132.3 
	159.3,132.3 159.3,122.4 164.9,122.4 "/>
<polygon fill="#004A99" points="170,131 174.5,131 174.5,132.3 168.6,132.3 168.6,122.4 170,122.4 "/>
<path fill="#004A99" d="M180,128.1h3.1l-1.6-3.6L180,128.1z M186.4,132.3H185l-1.3-2.9h-4.2l-1.2,2.9h-1.4l4.2-9.9h1L186.4,132.3z"
	/>
<g>
	<path fill="#004A99" d="M194.3,124.6c-0.8-0.8-1.7-1-2.3-1c-0.9,0-1.6,0.5-1.6,1.2c0,1.9,4.3,1.9,4.3,5c0,1.6-1.2,2.7-2.8,2.7
		c-1.1,0-1.9-0.3-2.8-0.9v-1.8c0.7,0.9,1.6,1.4,2.6,1.4c1.1,0,1.6-0.7,1.6-1.2c0-2-4.3-2.3-4.3-5c0-1.6,1.2-2.6,3-2.6
		c0.8,0,1.5,0.2,2.2,0.7V124.6z"/>
</g>
<polygon fill="#004A99" points="205.8,123.7 202.3,123.7 202.3,132.3 200.9,132.3 200.9,123.7 197.5,123.7 197.5,122.4 205.8,122.4 
	"/>
<rect x="209.2" y="122.4" fill="#004A99" width="1.4" height="9.9"/>
<polygon fill="#004A99" points="224.1,132.3 222.9,132.3 216.2,124.7 216.2,132.3 214.9,132.3 214.9,122.4 216,122.4 222.7,130.1 
	222.7,122.4 224.1,122.4 "/>
<g>
	<path fill="#004A99" d="M237,131.6c-1.3,0.6-2.4,0.8-3.8,0.8c-3,0-5.3-2.1-5.3-5c0-2.9,2.3-5.1,5.3-5.1c1.2,0,2,0.2,3.5,0.8v1.4
		c-1.2-0.6-2.4-1-3.5-1c-2.1,0-3.8,1.6-3.8,3.8c0,2.2,1.6,3.7,4,3.7c0.8,0,1.5-0.2,2.1-0.4v-2h-1.9v-1.3h3.3V131.6z"/>
</g>
<path fill="#004A99" d="M243.3,128.1h3.1l-1.6-3.6L243.3,128.1z M249.7,132.3h-1.5l-1.3-2.9h-4.2l-1.2,2.9h-1.5l4.2-9.9h1
	L249.7,132.3z"/>
<g>
	<path fill="#004A99" d="M254.4,131h2.3c3.2,0,4-2.4,4-3.7c0-2-1.3-3.7-4-3.7h-2.2V131z M253,122.4h3.8c3.6,0,5.3,2.6,5.3,4.9
		c0,2.5-2,4.9-5.2,4.9H253V122.4z"/>
</g>
<polygon fill="#004A99" points="268.7,132.4 268.4,132.4 264.1,122.4 265.5,122.4 268.5,129.4 271.4,122.4 272.8,122.4 "/>
<rect x="276.1" y="122.4" fill="#004A99" width="1.4" height="9.9"/>
<g>
	<path fill="#004A99" d="M286.5,124.6c-0.8-0.8-1.7-1-2.3-1c-0.9,0-1.6,0.5-1.6,1.2c0,1.9,4.3,1.9,4.3,5c0,1.6-1.2,2.7-2.8,2.7
		c-1.1,0-1.9-0.3-2.8-0.9v-1.8c0.7,0.9,1.6,1.4,2.6,1.4c1.1,0,1.6-0.7,1.6-1.2c0-2-4.3-2.3-4.3-5c0-1.6,1.2-2.6,3-2.6
		c0.8,0,1.5,0.2,2.2,0.7V124.6z"/>
</g>
<polygon fill="#004A99" points="296.1,123.7 291.9,123.7 291.9,126.7 296,126.7 296,128 291.9,128 291.9,131 296.2,131 296.2,132.3 
	290.5,132.3 290.5,122.4 296.1,122.4 "/>
<g>
	<path fill="#004A99" d="M308.2,128.4c0,2.4-1.5,4-4.4,4c-2.1,0-4.1-1.2-4.1-3.9v-6.1h1.4v5.8c0,1.1,0.1,1.6,0.6,2
		c0.6,0.6,1.3,0.8,2.1,0.8c1.1,0,1.9-0.3,2.3-0.8c0.5-0.5,0.6-1.2,0.6-2.2v-5.7h1.4V128.4z"/>
	<path fill="#004A99" d="M313.7,126.8h0.9c1.5,0,1.9-0.8,1.9-1.6c0-0.9-0.6-1.5-1.9-1.5h-0.9V126.8z M314.7,122.4
		c2,0,3.2,1.1,3.2,2.8c0,1.1-0.6,2-1.6,2.4c0.9,0.6,1.4,1.5,2.2,2.7c0.4,0.7,0.7,1,1.3,1.9h-1.7l-1.3-2c-1.3-2-1.9-2.3-2.6-2.3h-0.6
		v4.3h-1.4v-9.9H314.7z"/>
	<path fill="#004A99" d="M327.8,124.6c-0.8-0.8-1.7-1-2.3-1c-0.9,0-1.6,0.5-1.6,1.2c0,1.9,4.3,1.9,4.3,5c0,1.6-1.2,2.7-2.8,2.7
		c-1.1,0-1.9-0.3-2.8-0.9v-1.8c0.7,0.9,1.6,1.4,2.6,1.4c1.1,0,1.6-0.7,1.6-1.2c0-2-4.3-2.3-4.3-5c0-1.6,1.2-2.6,3-2.6
		c0.8,0,1.5,0.2,2.2,0.7V124.6z"/>
</g>
</svg>
